<mxfile host="app.diagrams.net" modified="2022-11-30T06:17:01.037Z" agent="5.0 (Windows NT 10.0; Win64; x64) AppleWebKit/537.36 (KHTML, like Gecko) Chrome/106.0.0.0 Safari/537.36" etag="500QBIBKTvRSyu14b_t2" version="20.2.7" type="github" pages="2">
  <diagram id="6a731a19-8d31-9384-78a2-239565b7b9f0" name="Page-1">
    <mxGraphModel dx="1422" dy="762" grid="1" gridSize="10" guides="1" tooltips="1" connect="1" arrows="1" fold="1" page="1" pageScale="1" pageWidth="1169" pageHeight="827" background="none" math="0" shadow="0">
      <root>
        <mxCell id="0" />
        <mxCell id="1" parent="0" />
        <mxCell id="OuYxnnRZHrjsNE1wYkX0-14" style="edgeStyle=orthogonalEdgeStyle;rounded=0;orthogonalLoop=1;jettySize=auto;html=1;exitX=0.5;exitY=1;exitDx=0;exitDy=0;entryX=0.5;entryY=0;entryDx=0;entryDy=0;" edge="1" parent="1" source="OuYxnnRZHrjsNE1wYkX0-13" target="OuYxnnRZHrjsNE1wYkX0-15">
          <mxGeometry relative="1" as="geometry">
            <mxPoint x="590" y="180" as="targetPoint" />
          </mxGeometry>
        </mxCell>
        <mxCell id="OuYxnnRZHrjsNE1wYkX0-13" value="进入软件" style="rounded=1;whiteSpace=wrap;html=1;" vertex="1" parent="1">
          <mxGeometry x="530" y="70" width="120" height="60" as="geometry" />
        </mxCell>
        <mxCell id="OuYxnnRZHrjsNE1wYkX0-16" style="edgeStyle=orthogonalEdgeStyle;rounded=0;orthogonalLoop=1;jettySize=auto;html=1;exitX=0.5;exitY=1;exitDx=0;exitDy=0;entryX=0.5;entryY=0;entryDx=0;entryDy=0;" edge="1" parent="1" source="OuYxnnRZHrjsNE1wYkX0-15" target="OuYxnnRZHrjsNE1wYkX0-17">
          <mxGeometry relative="1" as="geometry">
            <mxPoint x="590" y="320" as="targetPoint" />
          </mxGeometry>
        </mxCell>
        <mxCell id="OuYxnnRZHrjsNE1wYkX0-15" value="点击导出按钮" style="rounded=0;whiteSpace=wrap;html=1;" vertex="1" parent="1">
          <mxGeometry x="530" y="210" width="120" height="60" as="geometry" />
        </mxCell>
        <mxCell id="OuYxnnRZHrjsNE1wYkX0-18" style="edgeStyle=orthogonalEdgeStyle;rounded=0;orthogonalLoop=1;jettySize=auto;html=1;exitX=0.5;exitY=1;exitDx=0;exitDy=0;fontColor=#000000;entryX=0.5;entryY=0;entryDx=0;entryDy=0;" edge="1" parent="1" source="OuYxnnRZHrjsNE1wYkX0-17" target="OuYxnnRZHrjsNE1wYkX0-20">
          <mxGeometry relative="1" as="geometry">
            <mxPoint x="570" y="470" as="targetPoint" />
          </mxGeometry>
        </mxCell>
        <mxCell id="OuYxnnRZHrjsNE1wYkX0-17" value="执行x6TopoTopBar.vue的&lt;span style=&quot;font-family: Consolas, &amp;quot;Courier New&amp;quot;, monospace; font-size: 14px;&quot;&gt;topBarMethods（&lt;/span&gt;&lt;span style=&quot;font-family: Consolas, &amp;quot;Courier New&amp;quot;, monospace; font-size: 14px;&quot;&gt;&#39;export&#39;）&lt;/span&gt;" style="rounded=0;whiteSpace=wrap;html=1;" vertex="1" parent="1">
          <mxGeometry x="465" y="330" width="250" height="110" as="geometry" />
        </mxCell>
        <mxCell id="OuYxnnRZHrjsNE1wYkX0-22" value="" style="edgeStyle=orthogonalEdgeStyle;rounded=0;orthogonalLoop=1;jettySize=auto;html=1;fontColor=#000000;" edge="1" parent="1" source="OuYxnnRZHrjsNE1wYkX0-20" target="OuYxnnRZHrjsNE1wYkX0-21">
          <mxGeometry relative="1" as="geometry" />
        </mxCell>
        <mxCell id="OuYxnnRZHrjsNE1wYkX0-20" value="&lt;span style=&quot;font-family: Consolas, &amp;quot;Courier New&amp;quot;, monospace; font-size: 14px;&quot;&gt;向父元件传递参数this.$emit(&#39;topBarMethods&#39;, type, param)&lt;/span&gt;" style="rounded=0;whiteSpace=wrap;html=1;labelBackgroundColor=#FFFFFF;fontColor=#000000;" vertex="1" parent="1">
          <mxGeometry x="435" y="480" width="310" height="126" as="geometry" />
        </mxCell>
        <mxCell id="OuYxnnRZHrjsNE1wYkX0-24" value="" style="edgeStyle=orthogonalEdgeStyle;rounded=0;orthogonalLoop=1;jettySize=auto;html=1;fontColor=#000000;" edge="1" parent="1" source="OuYxnnRZHrjsNE1wYkX0-21" target="OuYxnnRZHrjsNE1wYkX0-23">
          <mxGeometry relative="1" as="geometry" />
        </mxCell>
        <mxCell id="OuYxnnRZHrjsNE1wYkX0-21" value="&lt;span style=&quot;background-color: rgb(255, 255, 255);&quot;&gt;在x6main.vue执行方法&lt;span style=&quot;font-family: Consolas, &amp;quot;Courier New&amp;quot;, monospace; font-size: 14px;&quot;&gt;export&lt;/span&gt;&lt;/span&gt;" style="whiteSpace=wrap;html=1;fontColor=#000000;rounded=0;labelBackgroundColor=#FFFFFF;" vertex="1" parent="1">
          <mxGeometry x="530" y="660" width="120" height="60" as="geometry" />
        </mxCell>
        <mxCell id="OuYxnnRZHrjsNE1wYkX0-26" value="" style="edgeStyle=orthogonalEdgeStyle;rounded=0;orthogonalLoop=1;jettySize=auto;html=1;fontColor=#000000;" edge="1" parent="1" source="OuYxnnRZHrjsNE1wYkX0-23" target="OuYxnnRZHrjsNE1wYkX0-25">
          <mxGeometry relative="1" as="geometry" />
        </mxCell>
        <mxCell id="OuYxnnRZHrjsNE1wYkX0-23" value="&lt;span style=&quot;background-color: rgb(255, 255, 255);&quot;&gt;遍历&lt;span style=&quot;font-family: Consolas, &amp;quot;Courier New&amp;quot;, monospace; font-size: 14px;&quot;&gt;exportContent所有页面内容，将缓存的内容和当前页面的显示内容覆盖进去&lt;/span&gt;&lt;/span&gt;" style="whiteSpace=wrap;html=1;fontColor=#000000;rounded=0;labelBackgroundColor=#FFFFFF;" vertex="1" parent="1">
          <mxGeometry x="485" y="800" width="210" height="110" as="geometry" />
        </mxCell>
        <mxCell id="OuYxnnRZHrjsNE1wYkX0-25" value="&lt;span style=&quot;background-color: rgb(255, 255, 255);&quot;&gt;最后调用&lt;span style=&quot;font-family: Consolas, &amp;quot;Courier New&amp;quot;, monospace; font-size: 14px;&quot;&gt;x2js的库，将生成的JSON数据转换为xml格式，最后新建标签a,代码下载它&lt;/span&gt;&lt;/span&gt;" style="whiteSpace=wrap;html=1;fontColor=#000000;rounded=0;labelBackgroundColor=#FFFFFF;" vertex="1" parent="1">
          <mxGeometry x="485" y="1015" width="210" height="115" as="geometry" />
        </mxCell>
      </root>
    </mxGraphModel>
  </diagram>
  <diagram id="0e8hRdUWoswD36rQahxc" name="第 2 页">
    <mxGraphModel dx="1422" dy="762" grid="1" gridSize="10" guides="1" tooltips="1" connect="1" arrows="1" fold="1" page="1" pageScale="1" pageWidth="827" pageHeight="1169" math="0" shadow="0">
      <root>
        <mxCell id="0" />
        <mxCell id="1" parent="0" />
      </root>
    </mxGraphModel>
  </diagram>
</mxfile>
